<?xml version="1.0" encoding="UTF-8"?><svg xmlns="http://www.w3.org/2000/svg" viewBox="0 0 235.72 45.36"><defs><style>.d{fill:#fff;}</style></defs><g id="a"/><g id="b"><g id="c"><g><path class="d" d="M0,.35H6.19V22.26c1.44-1.17,2.35-1.89,3.24-2.63,6.87-5.73,13.79-11.4,20.55-17.25C31.87,.74,33.76-.06,36.21,.2c1.25,.13,2.53,.02,4.61,.02-7.9,6.68-15.26,12.9-22.81,19.28,7.86,8.34,15.56,16.5,23.53,24.96,2.31-5.34,4.48-10.34,6.63-15.35,3.87-9.01,7.76-18.01,11.57-27.04,.58-1.37,1.35-1.69,2.8-1.92,4.42-.7,6.49,1.07,8.2,5.2,5.16,12.44,10.87,24.64,16.37,36.94,.38,.86,.73,1.73,1.22,2.91-2.05,0-3.87,.13-5.65-.07-.65-.07-1.48-.81-1.78-1.45-1.61-3.38-3.12-6.81-4.57-10.27-.53-1.27-1.22-1.81-2.67-1.79-6.07,.08-12.14,.08-18.21,0-1.45-.02-2.11,.53-2.61,1.81-1.26,3.19-2.73,6.29-3.97,9.49-.65,1.69-1.45,2.56-3.46,2.38-2.46-.23-4.98-.29-7.42,0-3.06,.38-5-.93-6.94-3.1-5.42-6.08-11.04-11.98-16.59-17.94-.37-.4-.79-.75-1.33-1.25-2.1,1.68-4.22,3.24-6.15,5-.53,.48-.7,1.55-.71,2.35-.06,4.86-.03,9.71-.03,14.7H0V.35h0ZM73.26,25.98c-3.04-7.01-5.97-13.78-9.05-20.88-2.9,7.19-5.64,13.99-8.41,20.88h17.46Z"/><path class="d" d="M95.92,.22c2.27,0,4.42-.12,6.54,.07,.7,.06,1.49,.8,1.96,1.44,8.45,11.43,16.85,22.9,25.27,34.35,.14,.19,.32,.35,.72,.77V.35h5.73V45.17c-2.15,0-4.37,.16-6.55-.09-.73-.08-1.46-1.09-1.99-1.83-8.27-11.46-16.51-22.95-24.76-34.43-.32-.45-.66-.88-1.29-1.7V45.04h-5.65V.21h.02Z"/><path class="d" d="M198.63,.22c1.47,0,2.88-.02,4.3,0,7.1,.13,14.23-.15,21.27,.53,7.72,.74,11.78,5.99,11.51,13.53-.25,7.21-5.09,12.08-12.68,12.69-1.91,.15-3.83,.08-5.75,.13-4.05,.09-8.1,.18-12.16,.28-.12,4.12-.25,8.24-.35,12.36-.04,1.74,0,3.48,0,5.33h-6.15V.22h.01Zm6.28,21.44c5.93,0,11.75,.33,17.52-.1,4.64-.35,6.98-3.46,7-7.9,.02-4.2-2.41-7.21-6.92-7.74-4.02-.48-8.11-.38-12.17-.49-1.8-.05-3.6,0-5.43,0V21.67h0Z"/><path class="d" d="M190.9,44.99c-.32,.1-.39,.14-.47,.15-4.08,.24-6.96-1.52-8.64-5.29-.97-2.19-2.02-4.34-2.92-6.56-.49-1.21-1.16-1.68-2.5-1.67-6.15,.07-12.31,.07-18.46,0-1.37-.02-1.96,.54-2.44,1.72-1.31,3.25-2.83,6.43-4.06,9.71-.63,1.7-1.52,2.4-3.33,2.18-1.26-.16-2.55-.03-4.18-.03,1.44-3.42,2.77-6.63,4.15-9.83,4.75-11.06,9.55-22.11,14.24-33.19,.62-1.46,1.33-2.02,2.98-2,5.65,.08,5.64,0,7.91,5.11,5.49,12.3,10.99,24.6,16.48,36.91,.39,.87,.75,1.74,1.21,2.8h.03Zm-15-19c-3.04-7.01-5.98-13.8-9.06-20.9-2.89,7.16-5.63,13.97-8.43,20.9h17.49Z"/></g></g></g></svg>