<svg width="366" height="80" viewBox="0 0 366 80" fill="none" xmlns="http://www.w3.org/2000/svg">
<path d="M1.71133 -1.19209e-06C0.711328 -1.19209e-06 0.111328 0.599997 0.111328 1.6V11.6C0.111328 12.6 0.711328 13.2 1.71133 13.2H13.3113V78.4C13.3113 79.5 13.9113 80 14.9113 80H25.3113C26.4113 80 26.9113 79.5 26.9113 78.4V13.2H38.5113C39.6113 13.2 40.1113 12.6 40.1113 11.6V1.6C40.1113 0.599997 39.6113 -1.19209e-06 38.5113 -1.19209e-06H1.71133ZM87.0309 1.6C87.0309 0.599997 86.6309 -1.19209e-06 85.4309 -1.19209e-06H48.6309C47.7309 -1.19209e-06 47.1309 0.599997 47.1309 1.6V78.4C47.1309 79.4 47.7309 80 48.6309 80H85.4309C86.6309 80 87.0309 79.4 87.0309 78.4V68.4C87.0309 67.3 86.6309 66.8 85.4309 66.8H60.4309V46.6H79.5309C80.5309 46.6 81.1309 46 81.1309 44.9V35C81.1309 33.9 80.5309 33.3 79.5309 33.3H60.4309V13.3H85.4309C86.6309 13.3 87.0309 12.6 87.0309 11.6V1.6ZM164.833 80C166.433 80 167.033 79 166.333 77.7L148.233 37.3L165.233 2.4C165.933 0.999998 165.333 -1.19209e-06 163.833 -1.19209e-06H153.333C152.233 -1.19209e-06 151.533 0.499998 151.033 1.5L135.633 33V2C135.633 0.699996 134.933 -1.19209e-06 133.633 -1.19209e-06H124.033C122.733 -1.19209e-06 122.033 0.699996 122.033 2V78C122.033 79.3 122.733 80 124.033 80H133.633C134.933 80 135.633 79.3 135.633 78V55.9L139.333 48.8L151.933 78.5C152.333 79.5 153.033 80 154.233 80H164.833ZM177.246 -1.19209e-06C176.146 -1.19209e-06 175.646 0.599997 175.646 1.6V78.4C175.646 79.4 176.146 80 177.246 80H187.646C188.646 80 189.246 79.4 189.246 78.4V1.6C189.246 0.599997 188.646 -1.19209e-06 187.646 -1.19209e-06H177.246ZM223.879 -1.19209e-06C222.879 -1.19209e-06 222.279 0.599997 222.279 1.6V11.6C222.279 12.6 222.879 13.2 223.879 13.2H235.479V78.4C235.479 79.5 236.079 80 237.079 80H247.479C248.579 80 249.079 79.5 249.079 78.4V13.2H260.679C261.779 13.2 262.279 12.6 262.279 11.6V1.6C262.279 0.599997 261.779 -1.19209e-06 260.679 -1.19209e-06H223.879ZM268.322 65.6C268.322 75 273.322 80 282.722 80H293.922C303.322 80 308.322 75 308.322 65.6V14.4C308.322 4.99999 303.322 -1.19209e-06 293.922 -1.19209e-06H282.722C273.322 -1.19209e-06 268.322 4.99999 268.322 14.4V65.6ZM285.622 67.1C283.022 67.1 281.622 65.8 281.622 63.1V16.9C281.622 14.3 283.022 12.9 285.622 12.9H291.422C294.022 12.9 295.422 14.3 295.422 16.9V63.1C295.422 65.8 294.022 67.1 291.422 67.1H285.622ZM363.495 80C364.695 80 365.095 79.4 364.895 78.3L348.295 1.4C348.095 0.399994 347.495 -1.19209e-06 346.595 -1.19209e-06H332.695C331.795 -1.19209e-06 331.195 0.399994 330.995 1.4L314.395 78.3C314.095 79.4 314.595 80 315.695 80H326.395C327.295 80 327.795 79.5 327.995 78.6L330.695 64H348.495L351.295 78.6C351.495 79.5 351.995 80 352.895 80H363.495ZM345.995 52.4H333.195L339.595 17.5L345.995 52.4Z" fill="white"/>
</svg>
