<svg width="27" height="23" viewBox="0 0 27 23" fill="none" xmlns="http://www.w3.org/2000/svg">
<path d="M2.65355 21.3205L2.64711 21.3077L2.63994 21.2953L0.866928 18.2307H15.8848L18.3486 22.5H4.56293C3.75793 22.5 3.01965 22.046 2.65355 21.3205ZM25.6299 17.7561V17.8353C25.6252 18.0544 25.5999 18.2066 25.548 18.3614C25.4859 18.5465 25.3783 18.7584 25.1764 19.1011L25.1744 19.1046L23.5148 21.9744L11.1194 0.5H14.7911C15.5844 0.5 16.3112 0.938345 16.6793 1.63676L16.6836 1.64498L16.6882 1.65303L25.2751 16.5764L25.281 16.5866L25.2873 16.5965C25.5027 16.9332 25.6299 17.3336 25.6299 17.7561ZM3.02687 13.4885L8.08868 4.72582L13.147 13.4885H3.02687Z" stroke="white"/>
</svg>
