<svg width="25" height="25" viewBox="0 0 25 25" fill="none" xmlns="http://www.w3.org/2000/svg">
<path d="M4.90571 17.5206C5.95531 17.8395 6.36926 18.189 6.86293 19.0169C7.35551 19.8448 7.93328 20.7688 10.1046 20.2423M10.1182 23.046C10.1182 22.667 10.104 21.4197 10.104 19.8731C10.104 18.7919 10.4612 18.0863 10.8653 17.727C8.32048 17.4321 5.64351 16.4382 5.64351 11.9919C5.64351 10.726 6.09131 9.6906 6.82308 8.8802C6.70621 8.58639 6.31084 7.40682 6.93667 5.81003C6.93667 5.81003 7.89889 5.49766 10.0898 6.99834C11.004 6.74168 11.9848 6.6117 12.9612 6.60952C13.9355 6.61173 14.9163 6.74168 15.8326 6.99834C18.0214 5.49766 18.9836 5.81003 18.9836 5.81003C19.6094 7.40682 19.2162 8.58639 19.0972 8.8802C19.8311 9.6906 20.2746 10.7249 20.2746 11.9919C20.2746 16.448 17.5943 17.4299 15.0375 17.7161C15.4514 18.0765 15.8173 18.7831 15.8173 19.8666C15.8173 21.4164 15.8031 22.6659 15.8031 23.046C15.8031 23.3573 16.0095 23.7166 16.5917 23.6052C21.1461 22.0696 24.4282 17.7226 24.4282 12.6002C24.4282 6.19339 19.2927 1 12.959 1C6.62758 1 1.49316 6.1923 1.49316 12.6002C1.49316 17.7248 4.77849 22.0728 9.3395 23.6063C9.90963 23.7133 10.1182 23.3551 10.1182 23.046Z" stroke="white" stroke-miterlimit="10" stroke-linecap="round" stroke-linejoin="round"/>
</svg>
