<svg width="51" height="50" viewBox="0 0 51 50" fill="none" xmlns="http://www.w3.org/2000/svg">
<path d="M50.0228 25.0454C50.0228 38.894 38.9117 50 25.0568 50C11.2019 50 -0.0226415 38.7806 3.42968e-05 24.9547C0.0453859 11.1968 11.3152 -0.0451942 25.0795 0.00013661C39.5466 0.0681328 50.2723 12.0808 50.0228 25.0454ZM47.7326 25.0454C47.7326 12.4661 37.6645 2.33467 25.1475 2.31201C12.5171 2.28934 2.33563 12.3754 2.31296 24.9321C2.31296 37.602 12.4037 47.6881 25.0795 47.6881C37.6418 47.6881 47.7099 37.602 47.7326 25.0454Z" fill="white"/>
<path d="M47.7546 25.0456C47.7546 37.6249 37.6866 47.6883 25.1015 47.6883C12.4257 47.6883 2.31232 37.6022 2.335 24.9322C2.335 12.3756 12.5391 2.26683 25.1695 2.31216C37.7092 2.33483 47.7773 12.4663 47.7546 25.0456ZM27.9133 35.4943C28.0493 35.4943 28.2081 35.4943 28.3441 35.4943C29.8861 35.4943 29.8861 35.4943 29.4552 34.0211C27.7546 28.264 26.0539 22.5297 24.3986 16.7727C23.6956 14.3248 23.7183 14.3248 21.2239 14.3022C20.0599 14.3022 19.3419 14.831 19.0697 15.8887C19.0244 16.0247 19.0017 16.1607 18.979 16.2967C17.3917 21.8951 15.7818 27.4934 14.1944 33.0918C13.4915 35.5623 13.4915 35.5396 16.0539 35.517C16.7341 35.517 16.9836 35.2677 17.1196 34.6557C17.4598 33.2051 17.8906 31.7772 18.2534 30.3266C18.3895 29.7826 18.6162 29.488 19.2511 29.5106C20.7477 29.5786 22.2444 29.5786 23.741 29.5106C24.4439 29.488 24.6707 29.7826 24.8294 30.3719C25.1242 31.5505 25.4416 32.7065 25.7818 33.8624C26.2353 35.4943 26.2353 35.4716 27.9587 35.4716L27.9133 35.4943ZM36.1673 27.7427V22.303C36.1673 19.8552 36.1673 19.8778 33.741 19.8325C32.902 19.8325 32.6525 20.0365 32.6752 20.8978C32.7206 24.9096 32.6979 28.9213 32.6979 32.9331C32.6979 35.5623 32.6979 35.5396 35.3283 35.4943C35.9859 35.4943 36.19 35.313 36.1673 34.6557C36.1219 32.3438 36.1673 30.0319 36.1673 27.7201V27.7427ZM32.4711 15.7754C32.4711 17.022 33.2194 17.7473 34.4666 17.7246C35.6684 17.702 36.3714 16.9087 36.3487 15.6394C36.3487 14.5061 35.5324 13.7355 34.3986 13.7129C33.2421 13.7129 32.4711 14.5288 32.4711 15.7754Z" fill="black"/>
<path d="M27.9154 35.4939C26.192 35.4939 26.192 35.4939 25.7385 33.8847C25.421 32.7288 25.0809 31.5728 24.7861 30.3942C24.6501 29.8049 24.4006 29.5103 23.6977 29.5329C22.2011 29.6009 20.7045 29.6009 19.2079 29.5329C18.5503 29.5103 18.3462 29.7823 18.2101 30.3489C17.8473 31.7995 17.4392 33.2274 17.0764 34.678C16.9403 35.29 16.6909 35.5393 16.0106 35.5393C13.4482 35.5393 13.4482 35.5846 14.1512 33.1141C15.7385 27.5157 17.3485 21.9174 18.9358 16.319C18.9811 16.183 19.0038 16.047 19.0265 15.911C19.2986 14.8533 20.0166 14.3245 21.1807 14.3245C23.675 14.3245 23.6523 14.3245 24.3553 16.795C26.0333 22.552 27.734 28.309 29.412 34.0434C29.8428 35.5166 29.8655 35.5166 28.3009 35.5166C28.1648 35.5166 28.0061 35.5166 27.87 35.5166L27.9154 35.4939ZM19.2532 26.4504C20.6138 26.4504 21.9063 26.4504 23.1761 26.4504C23.5843 26.4504 23.7657 26.3371 23.6523 25.8838C22.9494 23.1186 22.2464 20.3535 21.4981 17.4296L19.2759 26.4504H19.2532Z" fill="white"/>
<path d="M36.1678 27.7201C36.1678 30.0319 36.1678 32.3438 36.1678 34.6557C36.1678 35.313 35.9638 35.4943 35.3288 35.4943C32.6985 35.5396 32.6984 35.5623 32.6984 32.9331C32.6984 28.9213 32.6985 24.9096 32.6758 20.8978C32.6758 20.0365 32.9252 19.8325 33.7415 19.8325C36.1678 19.8779 36.1678 19.8325 36.1678 22.303C36.1678 24.1163 36.1678 25.9295 36.1678 27.7427V27.7201Z" fill="white"/>
<path d="M32.4717 15.7527C32.4717 14.5288 33.2427 13.6902 34.3991 13.6902C35.5556 13.6902 36.3266 14.4835 36.3492 15.6167C36.3719 16.886 35.669 17.6793 34.4671 17.702C33.22 17.7246 32.4717 17.022 32.4717 15.7527Z" fill="white"/>
<path d="M19.2512 26.4508L21.4734 17.4299C22.2217 20.3764 22.9247 23.1416 23.6276 25.8841C23.741 26.3374 23.5596 26.4508 23.1514 26.4508C21.8816 26.4508 20.5891 26.4508 19.2285 26.4508H19.2512Z" fill="black"/>
</svg>
