<svg width="51" height="50" viewBox="0 0 51 50" fill="none" xmlns="http://www.w3.org/2000/svg">
<path d="M25.0441 0.00274769C38.5973 -0.178484 50.1108 11.2164 50.0428 24.9674C49.9748 38.7863 38.8693 49.9773 25.0667 50C11.2415 50.0226 0.0226643 38.7863 0 24.9447C0 10.9672 11.6268 -0.201138 25.0441 0.00274769ZM47.7311 24.9447C47.7084 12.3491 37.6001 2.35876 24.9987 2.29079C12.556 2.22283 2.17578 12.6889 2.31176 25.1033C2.44775 37.6536 12.5334 47.7119 25.1574 47.6666C37.6681 47.6213 47.7537 37.4723 47.7311 24.9447Z" fill="white"/>
<path d="M47.7312 24.9445C47.7538 37.4722 37.6682 47.6438 25.1575 47.6664C12.5335 47.7117 2.44785 37.6307 2.31187 25.1031C2.17588 12.6888 12.5561 2.22265 24.9988 2.29061C37.6002 2.35857 47.6858 12.349 47.7312 24.9445ZM35.7191 24.129H35.5831C35.5831 23.6986 35.5831 23.2682 35.5831 22.8604C35.5831 19.8474 35.5378 16.8118 35.5151 13.7988C35.5151 13.4137 35.7191 12.87 34.9938 12.8927C34.1779 12.8927 33.362 12.8927 32.5461 12.8927C31.9568 12.8927 31.7981 13.2098 31.7981 13.7762C31.8435 15.0448 31.7302 16.336 31.8208 17.6047C31.8888 18.5788 31.5488 18.7827 30.6196 18.7827C26.4494 18.7827 23.503 20.8442 22.3245 24.6274C21.7125 26.553 21.7352 28.5239 22.1658 30.5174C22.8457 33.6663 25.0215 35.9317 28.1945 36.4754C30.6423 36.8832 32.9994 36.3621 35.2658 35.4333C35.6964 35.2521 35.6964 34.9576 35.6964 34.5725C35.6964 31.0838 35.6964 27.595 35.6964 24.129H35.7191ZM17.9729 24.4688H17.9956V15.6111C17.9956 12.7114 17.9956 12.7341 15.1172 12.8473C14.4599 12.87 14.2786 13.0965 14.2786 13.7308C14.1426 20.4591 14.188 27.1646 14.256 33.8928C14.2786 36.3621 14.3466 36.3168 16.8624 36.2715C17.7916 36.2715 18.0409 35.9317 18.0182 35.0255C17.9729 31.5142 18.0182 27.9802 18.0182 24.4688H17.9729Z" fill="black"/>
<path d="M35.7413 24.1292C35.7413 27.6179 35.7413 31.1066 35.7413 34.5726C35.7413 34.9577 35.7413 35.2523 35.3107 35.4335C33.0443 36.3623 30.6872 36.906 28.2394 36.4756C25.0664 35.9319 22.8907 33.6665 22.2107 30.5176C21.7801 28.524 21.7801 26.5758 22.3694 24.6276C23.5479 20.8444 26.4943 18.7602 30.6645 18.7828C31.5938 18.7828 31.9337 18.579 31.8657 17.6048C31.7751 16.3362 31.8657 15.0449 31.8431 13.7763C31.8431 13.21 31.9791 12.8928 32.591 12.8928C33.4069 12.8928 34.2228 12.8928 35.0387 12.8928C35.764 12.8928 35.56 13.4365 35.56 13.799C35.5827 16.812 35.6054 19.8476 35.628 22.8606C35.628 23.291 35.628 23.7214 35.628 24.1292H35.764H35.7413ZM31.7977 27.5726C31.7977 26.0094 31.7977 24.4463 31.7977 22.8832C31.7977 22.4528 31.8204 22.0677 31.1858 21.9997C29.0327 21.7505 27.3555 22.6793 26.4716 24.6502C25.7237 26.3266 25.5877 28.071 25.973 29.838C26.517 32.3299 28.6927 33.6891 31.0725 33.1681C31.6391 33.0548 31.8431 32.8056 31.8204 32.2393C31.7977 30.6762 31.8204 29.113 31.8204 27.5499L31.7977 27.5726Z" fill="white"/>
<path d="M17.9722 24.469C17.9722 27.9803 17.9495 31.5144 17.9722 35.0257C17.9722 35.9319 17.7456 36.249 16.8163 36.2717C14.3232 36.317 14.2326 36.3623 14.2099 33.893C14.1419 27.1648 14.0966 20.4592 14.2326 13.731C14.2326 13.0967 14.4139 12.8702 15.0712 12.8475C17.9722 12.7343 17.9495 12.7116 17.9495 15.6113V24.469H17.9269H17.9722Z" fill="white"/>
<path d="M31.7978 27.5725C31.7978 29.1357 31.7978 30.6988 31.7978 32.2619C31.7978 32.8283 31.6165 33.0548 31.0499 33.1907C28.6701 33.7118 26.4717 32.3299 25.9504 29.8606C25.5651 28.0936 25.7011 26.3492 26.449 24.6728C27.3329 22.6793 29.0101 21.7731 31.1632 22.0223C31.7978 22.0903 31.7752 22.4754 31.7752 22.9058C31.7752 24.469 31.7752 26.0321 31.7752 27.5952L31.7978 27.5725Z" fill="black"/>
</svg>
