<svg width="25" height="25" viewBox="0 0 25 25" fill="none" xmlns="http://www.w3.org/2000/svg">
<path d="M18.8889 1H6.11111C3.28832 1 1 3.28832 1 6.11111V18.8889C1 21.7117 3.28832 24 6.11111 24H18.8889C21.7117 24 24 21.7117 24 18.8889V6.11111C24 3.28832 21.7117 1 18.8889 1Z" stroke="white" stroke-linejoin="round"/>
<path d="M12.5 18C15.5376 18 18 15.5376 18 12.5C18 9.46242 15.5376 7 12.5 7C9.46242 7 7 9.46242 7 12.5C7 15.5376 9.46242 18 12.5 18Z" stroke="white" stroke-linejoin="round"/>
<path d="M20.5 5.5C20.5 6.05231 20.0523 6.5 19.5 6.5C18.9477 6.5 18.5 6.05231 18.5 5.5C18.5 4.94769 18.9477 4.5 19.5 4.5C20.0523 4.5 20.5 4.94769 20.5 5.5Z" stroke="white"/>
</svg>
