<svg width="137" height="57" viewBox="0 0 137 57" fill="none" xmlns="http://www.w3.org/2000/svg">
<g clip-path="url(#clip0_771_1285)">
<path d="M42.62 1.56L9.8 50.08H41.84V56.02H0V54.18L32.54 5.94H2.62V0H42.62V1.56ZM58.24 56.01H51.68V0H58.24V56.02V56.01Z" fill="white"/>
<path d="M86.69 15.4L78.49 27.53H86.5V29.01H76.04V28.55L84.17 16.49H76.69V15.01H86.69V15.4ZM89.56 16.47C89.27 16.47 89.03 16.37 88.83 16.18C88.63 15.98 88.53 15.74 88.53 15.44C88.53 15.14 88.63 14.89 88.83 14.7C89.03 14.5 89.28 14.4 89.56 14.4C89.84 14.4 90.1 14.5 90.3 14.7C90.51 14.9 90.61 15.14 90.61 15.44C90.61 15.74 90.51 15.97 90.3 16.17C90.1 16.37 89.85 16.47 89.56 16.47ZM90.34 29.01H88.74V19.01H90.34V29.01ZM95.18 29.01H93.58V14.21H95.18V29.01ZM99.24 16.47C98.95 16.47 98.71 16.37 98.51 16.18C98.31 15.98 98.21 15.74 98.21 15.44C98.21 15.14 98.31 14.89 98.51 14.7C98.71 14.5 98.96 14.4 99.24 14.4C99.52 14.4 99.78 14.5 99.98 14.7C100.19 14.9 100.29 15.14 100.29 15.44C100.29 15.74 100.19 15.97 99.98 16.17C99.78 16.37 99.53 16.47 99.24 16.47ZM100.02 29.01H98.42V19.01H100.02V29.01ZM111.56 29.01H109.96V23.31C109.96 21.19 109.18 20.13 107.64 20.13C106.84 20.13 106.18 20.43 105.65 21.04C105.13 21.64 104.87 22.4 104.87 23.32V29.02H103.27V19.02H104.87V20.68H104.91C105.67 19.42 106.76 18.79 108.19 18.79C109.28 18.79 110.12 19.14 110.7 19.85C111.28 20.55 111.57 21.57 111.57 22.91V29.02H111.56V29.01ZM91.81 56H90.18V46.61C90.18 45.87 90.23 44.96 90.32 43.89H90.28C90.12 44.52 89.98 44.97 89.86 45.25L85.07 56.01H84.27L79.49 45.33C79.35 45.02 79.21 44.54 79.07 43.89H79.03C79.08 44.45 79.11 45.36 79.11 46.63V56.01H77.53V42.01H79.7L84 51.78C84.33 52.53 84.55 53.09 84.64 53.46H84.7C84.98 52.69 85.2 52.12 85.37 51.74L89.75 42.01H91.8V56.01H91.81V56ZM99.47 56.22C97.99 56.22 96.81 55.75 95.92 54.82C95.04 53.88 94.6 52.64 94.6 51.1C94.6 49.42 95.06 48.11 95.98 47.16C96.9 46.22 98.14 45.74 99.7 45.74C101.26 45.74 102.35 46.2 103.19 47.12C104.03 48.04 104.45 49.31 104.45 50.94C104.45 52.57 104 53.81 103.09 54.78C102.19 55.74 100.98 56.22 99.47 56.22ZM99.59 47.1C98.56 47.1 97.75 47.45 97.15 48.15C96.55 48.85 96.25 49.81 96.25 51.04C96.25 52.27 96.55 53.16 97.16 53.84C97.77 54.52 98.58 54.87 99.59 54.87C100.6 54.87 101.42 54.53 101.97 53.86C102.53 53.19 102.81 52.24 102.81 51C102.81 49.76 102.53 48.79 101.97 48.11C101.42 47.43 100.62 47.09 99.59 47.09V47.1ZM115.1 56H113.5V54.42H113.46C112.8 55.63 111.77 56.24 110.37 56.24C107.99 56.24 106.8 54.82 106.8 51.98V46H108.39V51.72C108.39 53.83 109.2 54.88 110.81 54.88C111.59 54.88 112.23 54.59 112.73 54.02C113.24 53.44 113.49 52.69 113.49 51.75V45.99H115.09V55.99H115.1V56ZM119.94 56H118.34V41.2H119.94V56ZM124 43.46C123.71 43.46 123.47 43.36 123.27 43.17C123.07 42.97 122.97 42.73 122.97 42.43C122.97 42.13 123.07 41.88 123.27 41.69C123.47 41.49 123.72 41.39 124 41.39C124.28 41.39 124.54 41.49 124.74 41.69C124.95 41.89 125.05 42.13 125.05 42.43C125.05 42.73 124.95 42.96 124.74 43.16C124.54 43.36 124.29 43.46 124 43.46ZM124.78 56H123.18V46H124.78V56ZM136.32 56H134.72V50.3C134.72 48.18 133.95 47.12 132.4 47.12C131.6 47.12 130.93 47.42 130.41 48.03C129.89 48.63 129.63 49.39 129.63 50.31V56.01H128.03V46.01H129.63V47.67H129.67C130.43 46.41 131.52 45.78 132.95 45.78C134.04 45.78 134.88 46.13 135.46 46.84C136.04 47.54 136.33 48.56 136.33 49.9V56.01L136.32 56Z" fill="white"/>
</g>
<defs>
<clipPath id="clip0_771_1285">
<rect width="136.33" height="56.25" fill="white"/>
</clipPath>
</defs>
</svg>
