<?xml version="1.0" encoding="UTF-8"?><svg id="Layer_2" xmlns="http://www.w3.org/2000/svg" viewBox="0 0 197.87 133.33"><defs><style>.cls-1{fill:#fff;stroke-width:0px;}</style></defs><g id="Group_1_copy_26"><path class="cls-1" d="M107.11,3.72L29,119.19h76.25v14.13H5.66v-4.37L83.12,14.13H11.89V0h95.21v3.72Z"/><path class="cls-1" d="M144.3,133.33h-15.62V0h15.62v133.33Z"/><polygon class="cls-1" points="11.15 64.36 7.03 69.52 0 69.52 4.12 64.36 11.15 64.36"/><polygon class="cls-1" points="175.34 64.36 171.32 69.4 171.22 69.52 20.34 69.52 24.5 64.36 175.34 64.36"/><polygon class="cls-1" points="197.87 64.36 197.03 65.41 196.93 65.53 193.74 69.52 186.8 69.52 187.84 68.22 190.92 64.36 197.87 64.36"/><polygon class="cls-1" points="14.59 64.36 17 64.36 12.73 69.52 11.4 69.52 14.59 64.36"/><polygon class="cls-1" points="73.93 52.41 80.12 65.68 64.53 65.16 73.93 52.41"/><polygon class="cls-1" points="40.59 81.39 34.4 68.12 49.99 68.64 40.59 81.39"/><polygon class="cls-1" points="34.06 109.81 40.25 123.08 24.67 122.56 34.06 109.81"/><polygon class="cls-1" points="78.52 25.98 72.32 12.71 87.91 13.23 78.52 25.98"/></g></svg>