<?xml version="1.0" encoding="UTF-8"?><svg id="Layer_2" xmlns="http://www.w3.org/2000/svg" viewBox="0 0 328.1 133.33"><defs><style>.cls-1{fill:#fff;stroke-width:0px;}</style></defs><g id="Group_1_copy_26"><path class="cls-1" d="M177.43,88.37h-4.92v-42.01h4.92v42.01Z"/><path class="cls-1" d="M261.67,46.36v42.01h-4.89v-28.18c0-1.12.03-2.37.1-3.74h-1.23l-14.2,31.92h-2.4l-14.27-31.92h-1.23c.02,1.12.03,2.39.03,3.8v28.12h-4.75v-42.01h6.51l2.17,4.93,2.27,5.16,8.45,19.21c1,2.24,1.64,3.92,1.93,5.04h.18c.84-2.31,1.51-4.03,2.02-5.16l8.61-19.09,2.33-5.16,2.22-4.93h6.15Z"/><path class="cls-1" d="M305.88,88.37h-4.92v-42.01h4.92v42.01Z"/><polygon class="cls-1" points="210.75 83.92 210.75 88.37 188.48 88.37 188.48 46.36 209.81 46.36 209.81 50.81 197.03 50.81 196.46 51.53 193.44 55.31 193.4 55.28 193.4 64.36 208.49 64.36 206.89 66.36 204.55 69.29 204.37 69.52 193.4 69.52 193.4 78.51 194.64 80.07 194.65 80.07 197.72 83.92 210.75 83.92"/><polygon class="cls-1" points="294.51 83.92 294.51 88.37 272.72 88.37 272.72 46.36 277.64 46.36 277.64 78.52 278.88 80.08 278.89 80.08 281.96 83.92 294.51 83.92"/><rect class="cls-1" x="322.94" y="64.36" width="5.16" height="5.16"/><path class="cls-1" d="M107.11,3.72L29,119.19h76.25v14.13H5.66v-4.37L83.12,14.13H11.89V0h95.21v3.72Z"/><path class="cls-1" d="M144.3,133.33h-15.62V0h15.62v133.33Z"/><polygon class="cls-1" points="11.15 64.36 7.03 69.52 0 69.52 4.12 64.36 11.15 64.36"/><polygon class="cls-1" points="174.08 64.36 174.08 69.52 20.34 69.52 24.46 64.36 174.08 64.36"/><polygon class="cls-1" points="14.59 64.36 17 64.36 12.73 69.52 11.4 69.52 14.59 64.36"/><polygon class="cls-1" points="73.93 52.41 80.12 65.68 64.53 65.16 73.93 52.41"/><polygon class="cls-1" points="40.59 81.39 34.4 68.12 49.99 68.64 40.59 81.39"/><polygon class="cls-1" points="78.52 25.98 72.32 12.71 87.91 13.23 78.52 25.98"/><polygon class="cls-1" points="34.06 109.81 40.25 123.08 24.67 122.56 34.06 109.81"/></g></svg>