<svg width="51" height="50" viewBox="0 0 51 50" fill="none" xmlns="http://www.w3.org/2000/svg">
<path d="M24.9087 49.996C11.3557 50.1319 -0.134788 38.5787 0.00119475 24.7375C0.159841 11.5759 11.0158 0 25.0446 0C38.9149 0 50.0881 11.2361 50.0881 25.1452C50.0881 38.8958 38.5976 50.2452 24.9087 49.996ZM24.9767 47.6853C37.5324 47.7306 47.6178 37.6952 47.7764 25.2132C47.935 12.7992 37.6684 2.3333 25.226 2.3333C12.5116 2.3333 2.38089 12.3234 2.35823 24.964C2.33556 37.5819 12.3529 47.64 24.9767 47.6853Z" fill="white"/>
<path d="M24.9769 47.6853C12.3758 47.64 2.33577 37.5593 2.35844 24.964C2.3811 12.3234 12.5118 2.31064 25.2262 2.33329C37.6459 2.33329 47.9126 12.7991 47.7766 25.2132C47.618 37.6952 37.5326 47.7306 24.9769 47.6853ZM13.1011 24.7148V31.0125C13.1011 33.4137 13.1011 33.3684 15.4808 33.3684C16.2287 33.3684 16.342 33.0966 16.3193 32.4396C16.274 30.9218 16.3646 29.3814 16.2966 27.8636C16.2513 27.0481 16.5006 26.8216 17.2939 26.8669C18.7443 26.9802 20.2175 26.9122 21.6453 26.6177C24.1836 26.0967 25.7021 23.3103 25.1808 20.3201C24.7956 18.1 23.3224 16.1971 20.6028 16.1292C18.4044 16.0839 16.1833 16.1292 13.9849 16.0386C13.1917 16.0159 13.0557 16.3104 13.0557 17.0127C13.1011 19.5725 13.0557 22.1323 13.0557 24.6922L13.1011 24.7148ZM31.6173 20.4786C31.0961 20.5466 30.5521 20.5919 30.0309 20.6825C28.1498 21.0223 26.9033 22.2456 26.7673 23.8313C26.586 25.9608 27.2659 27.0708 29.3283 27.8183C30.5521 28.2714 31.844 28.5659 33.0905 28.951C33.4531 29.0643 33.8384 29.2002 33.8837 29.6986C33.9064 30.1516 33.8384 30.5367 33.4531 30.8312C32.2973 31.6694 30.2349 31.1937 29.5776 29.9024C29.4643 29.6759 29.4643 29.2002 29.1243 29.2908C28.2178 29.5173 26.9486 29.1775 26.4727 29.9251C26.0874 30.5141 26.9259 31.3976 27.4699 32.0092C27.8552 32.4623 28.3538 32.8474 28.9204 33.0739C30.8014 33.8215 32.7505 33.8894 34.609 33.0966C36.762 32.1904 37.6912 29.6306 36.626 27.6824C35.9008 26.3232 34.4956 26.0287 33.1811 25.621C32.2066 25.3038 31.1867 25.0999 30.2349 24.7375C29.4416 24.443 29.3736 23.7181 30.0082 23.265C30.9601 22.6081 32.8865 22.8799 33.4758 23.8313C33.7931 24.3524 34.1104 24.3977 34.5863 24.3071C35.1076 24.1938 35.6288 24.0352 36.1501 23.9673C36.7167 23.8993 36.626 23.6728 36.4901 23.265C35.8101 21.4074 34.269 20.5239 31.6627 20.456L31.6173 20.4786Z" fill="black"/>
<path d="M13.1006 24.7149C13.1006 22.155 13.1232 19.5952 13.1006 17.0354C13.1006 16.3331 13.2366 16.0386 14.0298 16.0613C16.2282 16.1519 18.4266 16.0839 20.6476 16.1519C23.3673 16.2198 24.8404 18.1227 25.2257 20.3428C25.747 23.333 24.2285 26.1194 21.6902 26.6404C20.2623 26.9349 18.7892 26.9802 17.3387 26.8896C16.5455 26.8216 16.2962 27.0708 16.3415 27.8863C16.4095 29.4041 16.3415 30.9445 16.3642 32.4623C16.3642 33.0966 16.2735 33.3911 15.5256 33.3911C13.1459 33.3911 13.1459 33.4137 13.1459 31.0351V24.7375L13.1006 24.7149ZM16.3188 21.4075C16.3188 23.1442 17.2027 23.9748 18.9705 23.8993C19.3331 23.8993 19.6731 23.8314 20.013 23.7634C21.2142 23.5369 21.8715 22.7893 21.9395 21.6113C22.0074 20.3428 21.4182 19.5272 20.1943 19.1874C19.7184 19.0515 19.2198 19.0062 18.7212 19.0062C17.1045 19.0062 16.2962 19.8066 16.2962 21.4075H16.3188Z" fill="white"/>
<path d="M31.6173 20.4785C34.2236 20.5465 35.7648 21.43 36.4447 23.2875C36.6033 23.6953 36.6713 23.9218 36.1047 23.9898C35.5835 24.0577 35.0622 24.2163 34.5409 24.3296C34.065 24.4429 33.7477 24.3749 33.4304 23.8539C32.8412 22.8798 30.9147 22.6306 29.9629 23.2875C29.3283 23.7179 29.4189 24.4655 30.1895 24.76C31.1414 25.1225 32.1612 25.349 33.1358 25.6435C34.4503 26.0512 35.8554 26.3457 36.5807 27.7049C37.6459 29.6531 36.7167 32.213 34.5636 33.1191C32.6825 33.912 30.7561 33.844 28.875 33.0964C28.3084 32.8699 27.8325 32.4848 27.4245 32.0317C26.9033 31.4201 26.042 30.5366 26.4273 29.9476C26.9033 29.2001 28.1724 29.5399 29.079 29.3133C29.4189 29.2227 29.4189 29.6984 29.5322 29.925C30.1895 31.2162 32.2519 31.6919 33.4078 30.8538C33.793 30.5593 33.861 30.1742 33.8384 29.7211C33.793 29.2227 33.4304 29.0868 33.0451 28.9735C31.7986 28.5884 30.5068 28.2713 29.2829 27.8409C27.2432 27.0933 26.5633 25.9833 26.7219 23.8539C26.8579 22.2908 28.1044 21.0675 29.9855 20.7051C30.5068 20.6144 31.0281 20.5691 31.572 20.5012L31.6173 20.4785Z" fill="white"/>
<path d="M16.3193 21.4076C16.3193 19.7916 17.1277 18.9912 18.7444 19.0063C19.243 19.0063 19.7189 19.0516 20.2175 19.1875C21.4413 19.5273 22.0306 20.3429 21.9626 21.6114C21.8946 22.8121 21.2374 23.5596 20.0362 23.7635C19.6962 23.8315 19.3336 23.8768 18.9937 23.8994C17.2259 23.975 16.342 23.1443 16.342 21.4076H16.3193Z" fill="black"/>
</svg>
