<svg width="30" height="30" viewBox="0 0 30 30" fill="none" xmlns="http://www.w3.org/2000/svg">
<path d="M3.125 22.3514C4.33054 23.0179 13.0571 28.0483 19.2624 24.1712C25.4677 20.2942 25.1254 13.6146 25.1254 10.5537C25.6875 9.37612 26.875 8.77744 26.875 5.58987C25.7086 6.66737 24.5492 7.034 23.3969 6.68975C22.2679 4.96848 20.7147 4.20717 18.7371 4.40584C15.7708 4.70384 14.6856 7.61406 15.0049 11.3792C10.4312 13.6921 6.84469 9.7025 4.99636 6.68975C4.37879 9.06244 3.78331 11.911 4.99636 15.0622C5.80506 17.1629 7.74906 18.939 10.8284 20.3904C7.70769 22.0817 5.13989 22.7354 3.125 22.3514Z" stroke="white" stroke-linejoin="round"/>
</svg>
